<?xml version="1.0" encoding="utf-8"?>
<!-- Generator: Adobe Illustrator 17.1.0, SVG Export Plug-In . SVG Version: 6.00 Build 0)  -->
<!DOCTYPE svg PUBLIC "-//W3C//DTD SVG 1.1//EN" "http://www.w3.org/Graphics/SVG/1.1/DTD/svg11.dtd">
<svg version="1.1" id="レイヤー_1" xmlns="http://www.w3.org/2000/svg" xmlns:xlink="http://www.w3.org/1999/xlink" x="0px"
	 y="0px" viewBox="0 0 640 640" enable-background="new 0 0 640 640" xml:space="preserve">
<path d="M483.7,405.5c0,0-15.6-85.1,10-169.9c18.9-62.5,40.6-89.5,52.3-84.8c11.7,4.7,21.5,54.5,7.8,110.7
	c-13.7,56.2-46.5,124.9-61.4,149.9"/>
<path d="M504.6,391.3c0,0,3.2-86.5,46.6-163.7c32-57,59-78.6,69.4-71.4c10.4,7.2,9.2,57.9-16.3,109.8
	c-25.5,51.9-72.4,111.8-92.4,133.1"/>
<path d="M408.8,520.9c27-8.6,49.6-32.1,59.4-41.3c11.4-10.7,46.2-43.7,49.6-61.6c4.3-22.7-7.7-40.7-17.7-55.1
	c-13.2-19.2-41.7-25.2-42.4-36.3c-5.2-85.4-54.8-165-124-194c-74.1-31-157.9-31-215.8,2.4C5.7,199.8-8.5,360.4,44,468.8
	c18.8,38.9,46.1,57.2,97.8,52.7c17.4-1.5,36.9-0.4,64.2-2.4c43.7-3.2,83-0.4,85.9-11.3c0.5-16.5-48-23.3-85.4-29.3
	c-30.7-4.9-4.2-58,19.6-76.2c17-13.1,39.6-26.6,81.5-8.9c12.5,5.3,24.7,10.3,17.7,25.8c-3.5,7.7-6.8,13-12.5,26.1
	c-11,25-18.2,48.5-9.6,62.8C311.3,521.5,378.2,530.7,408.8,520.9z"/>
<path d="M297,330.3c0,0,16.8,120.8-19.8,121.1c-25.4,0.2-20.5-23.8-22.1-46.5c-1.8-26.2,2.9-87.6,2.9-87.6"/>
<circle fill="#FFFFFF" cx="395.3" cy="463.2" r="13"/>
<circle cx="60.9" cy="155.9" r="32"/>
</svg>
