<?xml version="1.0" encoding="utf-8"?>
<!-- Generator: Adobe Illustrator 17.1.0, SVG Export Plug-In . SVG Version: 6.00 Build 0)  -->
<!DOCTYPE svg PUBLIC "-//W3C//DTD SVG 1.1//EN" "http://www.w3.org/Graphics/SVG/1.1/DTD/svg11.dtd">
<svg version="1.1" id="レイヤー_1" xmlns="http://www.w3.org/2000/svg" xmlns:xlink="http://www.w3.org/1999/xlink" x="0px"
	 y="0px" viewBox="0 0 640 640" enable-background="new 0 0 640 640" xml:space="preserve">
<path d="M620.5,156.2c-9.4-6.5-32.2,10.5-60.1,55.7c0.8-33.2-6.4-57.8-14.4-61c-11.7-4.7-33.3,22.2-52.3,84.8
	c-11.8,39-14.9,78.1-14.7,109c-10.9-6.7-20.9-11.5-21.3-18c-5.2-85.4-54.8-165-124-194c-74.1-31-157.9-31-215.8,2.4
	c-9,5.2-17.4,11-25.1,17.4c-1.8-16.2-15.6-28.7-32.2-28.5c-17.7,0.2-31.8,14.7-31.6,32.4c0.2,17,13.7,30.8,30.4,31.6
	C2.7,265.6,2.6,383.4,44,468.8c18.8,38.9,46.1,57.2,97.8,52.7c17.4-1.5,36.9-0.4,64.2-2.4c43.7-3.2,83-0.4,85.9-11.3
	c0.5-16.5-48-23.3-85.4-29.3c-30.7-4.9-4.2-58,19.6-76.2c7.9-6,16.9-12.2,28.5-15.3c-0.1,6.9,0.1,13.1,0.4,18.1
	c1.6,22.7-3.3,46.7,22.1,46.5c18.4-0.2,23.3-30.6,23.7-60.8c2.2,0.8,4.5,1.7,6.8,2.7c12.5,5.3,24.7,10.3,17.7,25.8
	c-3.5,7.7-6.8,13-12.5,26.1c-11,25-18.2,48.5-9.6,62.8c8.1,13.6,75,22.7,105.6,12.9c27-8.6,49.6-32.1,59.4-41.3
	c11.4-10.7,46.2-43.7,49.6-61.6c1.7-8.7,0.9-16.8-1.3-24.2c21.9-24.6,64-79.7,87.7-127.9C629.7,214.1,630.9,163.3,620.5,156.2z
	 M395.5,476.2c-7.2,0.1-13.1-5.7-13.2-12.8s5.7-13.1,12.8-13.2c7.2-0.1,13.1,5.7,13.2,12.8S402.7,476.1,395.5,476.2z"/>
</svg>
